<svg width="429" height="215" viewBox="0 0 429 215" fill="none" xmlns="http://www.w3.org/2000/svg">
<path d="M112.896 118.016L104.96 143.104H0L106.752 3.07201H44.288C42.4107 3.07201 40.448 3.92534 38.4 5.632C36.352 7.168 34.3893 9.13067 32.512 11.52C30.8053 13.7387 29.2693 16.128 27.904 18.688C26.7093 21.0773 25.9413 23.2107 25.6 25.088H22.784L30.464 0H131.584L24.576 140.032H91.136C93.184 140.032 95.232 139.264 97.28 137.728C99.328 136.021 101.205 134.059 102.912 131.84C104.789 129.451 106.325 127.061 107.52 124.672C108.885 122.112 109.739 119.893 110.08 118.016H112.896Z" fill="#060707"/>
<path d="M177.43 36.352C184.769 36.352 191.425 37.8027 197.398 40.704C203.371 43.4347 208.321 47.2747 212.246 52.224C216.171 57.0027 218.902 62.72 220.438 69.376C222.145 75.8613 222.401 82.7733 221.206 90.112C219.841 97.6213 217.195 104.619 213.27 111.104C209.345 117.589 204.566 123.307 198.934 128.256C193.302 133.035 186.987 136.875 179.99 139.776C172.993 142.507 165.825 143.872 158.486 143.872C151.147 143.872 144.491 142.507 138.518 139.776C132.715 136.875 127.766 133.035 123.67 128.256C119.745 123.307 116.929 117.589 115.222 111.104C113.686 104.619 113.601 97.6213 114.966 90.112C116.161 82.7733 118.721 75.8613 122.646 69.376C126.742 62.72 131.606 57.0027 137.238 52.224C142.87 47.2747 149.099 43.4347 155.926 40.704C162.923 37.8027 170.091 36.352 177.43 36.352ZM158.998 140.8C163.947 140.8 168.811 139.52 173.59 136.96C178.369 134.229 182.721 130.56 186.646 125.952C190.742 121.344 194.241 115.968 197.142 109.824C200.214 103.68 202.347 97.1093 203.542 90.112C204.737 83.2853 204.907 76.8 204.054 70.656C203.371 64.512 201.835 59.136 199.446 54.528C197.057 49.92 193.899 46.336 189.974 43.776C186.219 41.0453 181.867 39.68 176.918 39.68C171.969 39.68 167.105 41.0453 162.326 43.776C157.547 46.336 153.11 49.92 149.014 54.528C145.089 59.136 141.59 64.512 138.518 70.656C135.617 76.8 133.569 83.2853 132.374 90.112C131.179 97.1093 130.923 103.68 131.606 109.824C132.459 115.968 134.081 121.344 136.47 125.952C138.859 130.56 141.931 134.229 145.686 136.96C149.611 139.52 154.049 140.8 158.998 140.8Z" fill="#060707"/>
<path d="M319.662 3.07201C319.662 2.73067 319.662 2.38933 319.662 2.048C319.833 1.536 319.918 1.10933 319.918 0.768005C319.918 0.426666 320.003 0.170664 320.174 0H350.638C350.467 0.170664 350.382 0.426666 350.382 0.768005C350.382 1.10933 350.297 1.536 350.126 2.048C350.126 2.38933 350.126 2.73067 350.126 3.07201C346.371 3.07201 342.958 3.92534 339.886 5.632C336.985 7.33867 334.254 10.496 331.694 15.104C331.353 15.616 330.073 17.92 327.854 22.016C325.806 25.9413 323.161 30.976 319.918 37.12C316.846 43.264 313.262 50.176 309.166 57.856C305.07 65.3653 300.974 73.0453 296.878 80.896C287.15 99.328 276.142 120.064 263.854 143.104H245.934C241.838 120.576 238.254 100.181 235.182 81.92C233.817 74.24 232.451 66.6453 231.086 59.136C229.721 51.456 228.441 44.544 227.246 38.4C226.222 32.0853 225.283 26.7947 224.43 22.528C223.747 18.2613 223.321 15.616 223.15 14.592C222.297 10.1547 220.675 7.168 218.286 5.632C216.067 3.92534 213.081 3.07201 209.326 3.07201C209.326 2.56 209.326 2.13334 209.326 1.79201C209.497 1.45067 209.582 1.10933 209.582 0.768005C209.582 0.426666 209.667 0.170664 209.838 0H252.846C252.675 0.170664 252.59 0.426666 252.59 0.768005C252.59 1.10933 252.505 1.536 252.334 2.048C252.334 2.38933 252.334 2.73067 252.334 3.07201C248.579 3.07201 245.763 3.92534 243.886 5.632C242.179 7.168 241.667 10.1547 242.35 14.592C242.521 15.616 243.118 19.2 244.142 25.344C245.337 31.3173 246.702 38.656 248.238 47.36C249.774 55.8933 251.395 65.024 253.102 74.752C254.809 84.48 256.43 93.5253 257.966 101.888C259.502 110.08 260.782 116.992 261.806 122.624C262.83 128.085 263.342 130.901 263.342 131.072C263.342 130.901 264.195 129.195 265.902 125.952C267.779 122.709 270.169 118.443 273.07 113.152C275.971 107.691 279.214 101.547 282.798 94.72C286.382 87.7227 290.051 80.64 293.806 73.472C297.731 66.304 301.486 59.3067 305.07 52.48C308.825 45.6533 312.153 39.5093 315.054 34.048C317.955 28.5867 320.259 24.1493 321.966 20.736C323.843 17.3227 324.867 15.4453 325.038 15.104C327.427 10.496 328.025 7.33867 326.83 5.632C325.806 3.92534 323.417 3.07201 319.662 3.07201Z" fill="#060707"/>
<path d="M255.328 208.472C255.072 210.136 255.264 211.288 255.904 211.928C256.544 212.504 257.568 212.792 258.976 212.792C258.912 213.048 258.88 213.336 258.88 213.656C258.88 213.784 258.848 213.88 258.784 213.944H244V213.656C244 213.336 244.032 213.048 244.096 212.792C245.504 212.792 246.624 212.504 247.456 211.928C248.352 211.288 248.96 210.136 249.28 208.472L254.176 180.728C254.304 180.152 254.24 179.64 253.984 179.192C253.792 178.808 253.44 178.456 252.928 178.136C252.48 177.816 251.744 177.656 250.72 177.656L250.624 176.504L260.128 174.2H261.376L255.328 208.472ZM258.784 170.168C257.824 170.168 257.056 169.848 256.48 169.208C255.904 168.504 255.68 167.672 255.808 166.712C256 165.752 256.48 164.952 257.248 164.312C258.08 163.608 258.976 163.256 259.936 163.256C260.896 163.256 261.664 163.608 262.24 164.312C262.816 164.952 263.008 165.752 262.816 166.712C262.688 167.672 262.208 168.504 261.376 169.208C260.608 169.848 259.744 170.168 258.784 170.168Z" fill="#060707" fill-opacity="0.5"/>
<path d="M270.339 182.936C270.019 184.792 270.403 186.328 271.491 187.544C272.579 188.696 274.019 189.72 275.811 190.616C277.603 191.448 279.555 192.216 281.667 192.92C283.843 193.624 285.827 194.456 287.619 195.416C289.411 196.312 290.819 197.432 291.843 198.776C292.931 200.12 293.283 201.816 292.899 203.864C292.195 207.64 290.211 210.328 286.947 211.928C283.747 213.464 279.843 214.232 275.235 214.232C272.739 214.232 270.499 213.912 268.515 213.272C266.595 212.632 264.963 211.832 263.619 210.872C262.339 209.912 261.379 208.856 260.739 207.704C260.163 206.552 259.971 205.432 260.163 204.344C260.291 203.384 260.643 202.648 261.219 202.136C261.859 201.624 262.499 201.368 263.139 201.368C263.843 201.304 264.451 201.56 264.963 202.136C265.475 202.648 265.635 203.448 265.443 204.536C265.251 205.688 265.251 206.776 265.443 207.8C265.699 208.824 266.211 209.752 266.979 210.584C267.811 211.352 268.963 211.96 270.435 212.408C271.971 212.856 273.891 213.08 276.195 213.08C277.987 213.08 279.555 212.856 280.899 212.408C282.307 211.96 283.491 211.384 284.451 210.68C285.411 209.976 286.179 209.208 286.755 208.376C287.331 207.48 287.683 206.584 287.811 205.688C288.131 203.832 287.715 202.36 286.563 201.272C285.475 200.12 284.003 199.16 282.147 198.392C280.291 197.624 278.243 196.92 276.003 196.28C273.827 195.64 271.811 194.904 269.955 194.072C268.163 193.176 266.691 192.088 265.539 190.808C264.451 189.528 264.099 187.8 264.483 185.624C264.803 183.704 265.507 182.04 266.595 180.632C267.683 179.16 269.027 177.944 270.627 176.984C272.227 176.024 273.987 175.32 275.907 174.872C277.827 174.36 279.811 174.104 281.859 174.104C283.395 174.104 285.027 174.296 286.755 174.68C288.483 175.064 290.051 175.608 291.459 176.312C292.867 177.016 293.987 177.88 294.819 178.904C295.651 179.864 295.971 180.952 295.779 182.168C295.587 183.192 295.171 183.992 294.531 184.568C293.891 185.08 293.219 185.336 292.515 185.336C291.875 185.336 291.331 185.08 290.883 184.568C290.435 183.992 290.307 183.16 290.499 182.072C290.691 181.176 290.531 180.312 290.019 179.48C289.571 178.648 288.899 177.944 288.003 177.368C287.171 176.728 286.179 176.248 285.027 175.928C283.939 175.544 282.819 175.352 281.667 175.352C278.403 175.352 275.779 176.088 273.795 177.56C271.875 179.032 270.723 180.824 270.339 182.936Z" fill="#060707" fill-opacity="0.5"/>
<path d="M302.203 208.472C301.947 210.136 302.139 211.288 302.779 211.928C303.419 212.504 304.443 212.792 305.851 212.792C305.787 213.048 305.755 213.336 305.755 213.656C305.755 213.784 305.723 213.88 305.659 213.944H290.875V213.656C290.875 213.336 290.907 213.048 290.971 212.792C292.379 212.792 293.499 212.504 294.331 211.928C295.227 211.288 295.835 210.136 296.155 208.472C296.219 208.024 296.411 206.968 296.731 205.304C297.051 203.64 297.435 201.56 297.883 199.064C298.331 196.568 298.811 193.816 299.323 190.808C299.835 187.736 300.379 184.632 300.955 181.496C301.531 178.296 302.075 175.224 302.587 172.28C303.099 169.272 303.547 166.584 303.931 164.216C304.379 161.848 304.731 159.928 304.987 158.456C305.243 156.92 305.403 156.056 305.467 155.864C305.595 155.288 305.531 154.776 305.275 154.328C305.083 153.944 304.731 153.592 304.219 153.272C303.771 152.888 303.035 152.696 302.011 152.696L301.915 151.544L311.419 149.24H312.667C310.811 159.672 309.147 169.112 307.675 177.56C307.035 181.144 306.395 184.696 305.755 188.216C305.179 191.736 304.635 194.936 304.123 197.816C303.611 200.696 303.163 203.096 302.779 205.016C302.459 206.936 302.267 208.088 302.203 208.472Z" fill="#060707" fill-opacity="0.5"/>
<path d="M336.258 207.512C335.938 209.432 336.066 210.776 336.642 211.544C337.282 212.248 338.242 212.6 339.522 212.6C339.458 212.792 339.426 212.984 339.426 213.176C339.362 213.304 339.33 213.464 339.33 213.656V213.848H328.674L329.73 207.416C329.154 208.184 328.45 208.952 327.618 209.72C326.786 210.488 325.858 211.224 324.834 211.928C323.81 212.568 322.69 213.112 321.474 213.56C320.258 213.944 318.978 214.136 317.634 214.136C315.458 214.136 313.57 213.848 311.97 213.272C310.37 212.632 309.058 211.8 308.034 210.776C307.074 209.688 306.402 208.472 306.018 207.128C305.634 205.72 305.57 204.248 305.826 202.712C306.466 199.064 308.642 196.056 312.354 193.688C316.066 191.32 321.058 190.136 327.33 190.136H332.802C332.994 189.176 333.09 188.6 333.09 188.408C333.794 184.248 333.794 180.984 333.09 178.616C332.45 176.248 330.498 175.064 327.234 175.064C326.21 175.064 325.186 175.256 324.162 175.64C323.138 175.96 322.21 176.44 321.378 177.08C320.546 177.656 319.842 178.36 319.266 179.192C318.69 179.96 318.338 180.824 318.21 181.784C318.082 182.872 317.666 183.672 316.962 184.184C316.322 184.696 315.65 184.952 314.946 184.952C314.306 184.952 313.73 184.696 313.218 184.184C312.77 183.672 312.674 182.904 312.93 181.88C313.186 180.664 313.858 179.576 314.946 178.616C316.034 177.592 317.282 176.728 318.69 176.024C320.162 175.32 321.666 174.776 323.202 174.392C324.738 174.008 326.146 173.816 327.426 173.816C332.29 173.816 335.746 175.128 337.794 177.752C339.842 180.376 340.45 183.928 339.618 188.408C339.618 188.536 339.522 189.08 339.33 190.04C339.202 191 339.01 192.152 338.754 193.496C338.498 194.84 338.242 196.312 337.986 197.912C337.73 199.448 337.474 200.92 337.218 202.328C336.962 203.672 336.738 204.824 336.546 205.784C336.354 206.744 336.258 207.32 336.258 207.512ZM329.922 206.552C330.114 205.336 330.338 204.024 330.594 202.616C330.85 201.208 331.074 199.832 331.266 198.488C331.522 197.08 331.746 195.768 331.938 194.552C332.194 193.336 332.418 192.248 332.61 191.288H328.002C326.21 191.288 324.45 191.544 322.722 192.056C320.994 192.568 319.394 193.304 317.922 194.264C316.514 195.224 315.298 196.44 314.274 197.912C313.314 199.32 312.674 200.92 312.354 202.712C312.162 203.992 312.162 205.24 312.354 206.456C312.546 207.608 312.898 208.664 313.41 209.624C313.986 210.584 314.722 211.352 315.618 211.928C316.514 212.504 317.538 212.792 318.69 212.792C319.97 212.792 321.634 212.344 323.682 211.448C325.794 210.488 327.874 208.856 329.922 206.552Z" fill="#060707" fill-opacity="0.5"/>
<path d="M378.092 208.472C377.772 210.136 377.932 211.288 378.572 211.928C379.276 212.504 380.332 212.792 381.74 212.792C381.676 213.048 381.644 213.336 381.644 213.656C381.644 213.784 381.612 213.88 381.548 213.944H366.668C366.732 213.88 366.764 213.784 366.764 213.656C366.764 213.336 366.796 213.048 366.86 212.792C368.268 212.792 369.388 212.504 370.22 211.928C371.116 211.288 371.724 210.136 372.044 208.472L376.076 185.72C376.332 184.376 376.3 183.16 375.98 182.072C375.724 180.984 375.244 180.024 374.54 179.192C373.9 178.36 373.1 177.72 372.14 177.272C371.18 176.824 370.188 176.6 369.164 176.6C367.628 176.6 366.22 176.856 364.94 177.368C363.66 177.88 362.476 178.52 361.388 179.288C360.364 180.056 359.436 180.92 358.604 181.88C357.772 182.84 357.036 183.8 356.396 184.76C356.012 187.064 355.564 189.528 355.052 192.152C354.604 194.712 354.188 197.112 353.804 199.352C353.42 201.592 353.068 203.544 352.748 205.208C352.428 206.872 352.236 207.96 352.172 208.472C351.916 210.136 352.108 211.288 352.748 211.928C353.388 212.504 354.412 212.792 355.82 212.792C355.756 213.048 355.724 213.336 355.724 213.656C355.724 213.784 355.692 213.88 355.628 213.944H340.844V213.656C340.844 213.336 340.876 213.048 340.94 212.792C342.348 212.792 343.468 212.504 344.3 211.928C345.196 211.288 345.804 210.136 346.124 208.472C346.252 207.896 346.444 206.872 346.7 205.4C346.956 203.864 347.244 202.104 347.564 200.12C347.948 198.136 348.332 196.056 348.716 193.88C349.1 191.704 349.452 189.688 349.772 187.832C350.156 185.976 350.444 184.408 350.636 183.128C350.828 181.784 350.956 180.984 351.02 180.728C351.148 180.152 351.084 179.64 350.828 179.192C350.636 178.808 350.284 178.456 349.772 178.136C349.324 177.816 348.588 177.656 347.564 177.656L347.468 176.504L356.972 174.2H358.22C358.092 174.968 357.932 175.8 357.74 176.696C357.42 178.296 357.068 180.408 356.684 183.032C357.324 182.008 358.092 180.952 358.988 179.864C359.948 178.776 361.004 177.816 362.156 176.984C363.308 176.088 364.556 175.352 365.9 174.776C367.308 174.2 368.78 173.912 370.316 173.912C374.668 173.912 377.868 175.032 379.916 177.272C382.028 179.512 382.764 182.392 382.124 185.912L378.092 208.472Z" fill="#060707" fill-opacity="0.5"/>
<path d="M417.565 208.376C417.309 210.04 417.501 211.16 418.141 211.736C418.781 212.312 419.805 212.6 421.213 212.6L421.021 213.848H410.557L411.133 210.296C410.685 210.808 410.045 211.32 409.213 211.832C408.381 212.28 407.485 212.696 406.525 213.08C405.565 213.4 404.573 213.656 403.549 213.848C402.589 214.104 401.693 214.232 400.861 214.232C397.981 214.232 395.357 213.688 392.989 212.6C390.685 211.512 388.733 210.072 387.133 208.28C385.597 206.424 384.477 204.28 383.773 201.848C383.133 199.352 383.069 196.728 383.581 193.976C384.029 191.224 385.021 188.632 386.557 186.2C388.093 183.704 389.981 181.56 392.221 179.768C394.525 177.912 397.053 176.472 399.805 175.448C402.557 174.36 405.437 173.816 408.445 173.816C412.349 173.816 415.229 174.648 417.085 176.312L420.829 155.48C420.893 154.904 420.797 154.392 420.541 153.944C420.349 153.56 419.997 153.208 419.485 152.888C419.037 152.568 418.301 152.408 417.277 152.408V151.16L426.781 148.952H428.029L417.565 208.376ZM416.701 178.904C414.717 176.6 411.869 175.448 408.157 175.448C406.301 175.448 404.381 175.928 402.397 176.888C400.477 177.848 398.685 179.16 397.021 180.824C395.357 182.488 393.885 184.44 392.605 186.68C391.389 188.92 390.557 191.352 390.109 193.976C389.661 196.6 389.629 199.032 390.013 201.272C390.397 203.512 391.101 205.496 392.125 207.224C393.149 208.888 394.429 210.2 395.965 211.16C397.501 212.12 399.197 212.6 401.053 212.6C401.821 212.6 402.653 212.536 403.549 212.408C404.509 212.28 405.469 212.056 406.429 211.736C407.389 211.416 408.285 211.032 409.117 210.584C410.013 210.072 410.781 209.464 411.421 208.76L416.701 178.904Z" fill="#060707" fill-opacity="0.5"/>
</svg>
